<!--?xml version="1.0" encoding="UTF-8"?-->
    <!-- The Best Svg Icon site in the world: iconSvg.co, Visit us! https://iconsvg.co -->
    <svg id="svg" fill="#399ffe" stroke="#399ffe" width="200" height="200" version="1.1" viewBox="144 144 512 512" xmlns="http://www.w3.org/2000/svg">
    <g id="IconSvg_bgCarrier" stroke-width="0"></g>
    <g id="IconSvg_tracerCarrier" stroke-linecap="round" stroke-linejoin="round" stroke="#CCCCCC" stroke-width="0">
      <g xmlns="http://www.w3.org/2000/svg">
  <path d="m616.13 411.59c-6.5508-12.09-15.617-23.176-27.207-31.234 1.0078-5.0391 2.0156-10.578 2.0156-16.121 0-38.793-31.738-70.535-70.535-70.535-4.5352 0-8.5664 0.50391-12.594 1.0078-21.16-41.312-62.473-66.504-108.32-66.504-23.176 0-44.84 6.5508-63.48 18.137-18.641 11.586-34.258 28.215-44.336 48.871-4.0312-0.50391-8.5664-1.0078-12.594-1.0078-38.793 0-70.535 31.738-70.535 70.535 0 5.543 0.50391 11.082 2.0156 16.121-23.176 16.625-37.281 43.328-37.281 72.043 0 49.375 41.312 89.68 90.688 88.168h61.969l-4.5352-5.0391c-5.0391-5.543-8.0625-12.594-9.0703-19.648h-50.887c-34.762 0-62.977-28.215-62.977-62.977 0-20.152 10.078-39.297 26.703-51.387l13.602-10.078-4.0312-16.625c-1.0078-3.5273-1.0078-7.0547-1.0078-10.578 0-25.191 20.152-45.344 45.344-45.344 2.5195 0 5.543 0 8.0625 1.0078l18.641 3.5273 8.5664-17.129c16.121-32.746 49.375-52.898 85.648-52.898s69.023 20.152 85.648 52.898l8.5664 17.129 18.641-3.5273c2.5195-0.50391 5.543-1.0078 8.0625-1.0078 25.191 0 45.344 20.152 45.344 45.344 0 3.5273-0.50391 7.0547-1.0078 10.578l-4.0312 16.625 13.602 10.078c16.625 12.09 26.703 31.234 26.703 51.387 0 34.762-28.215 62.977-62.977 62.977h-45.848c-1.0078 7.0547-4.0312 14.105-9.0703 19.648l-4.5352 5.543h56.934 2.5195c48.871 0 88.168-39.297 88.168-88.168-0.50781-15.617-4.0352-29.223-10.586-41.816z"></path>
  <path d="m464.99 509.32-1.5117 1.5117-22.168 25.191-29.223 33.754c-5.0391 5.543-14.105 5.543-19.145 0l-29.219-33.754-22.168-25.191-1.5117-1.5117c-4.5352-5.0391-4.0312-13.098 1.0078-17.633 5.0391-4.5352 13.098-4.0312 17.633 1.0078l16.121 18.641 14.609 16.625 0.003907-105.29c0-7.0547 5.543-12.594 12.594-12.594 7.0547 0 12.594 5.543 12.594 12.594v104.79l14.609-16.625 16.121-18.641c4.5352-5.0391 12.594-5.543 17.633-1.0078 6.0508 4.5312 6.5547 12.594 2.0195 18.133z"></path>
 </g>

      </g>
     <g id="IconSvg_iconCarrier">
      <g xmlns="http://www.w3.org/2000/svg">
  <path d="m616.13 411.59c-6.5508-12.09-15.617-23.176-27.207-31.234 1.0078-5.0391 2.0156-10.578 2.0156-16.121 0-38.793-31.738-70.535-70.535-70.535-4.5352 0-8.5664 0.50391-12.594 1.0078-21.16-41.312-62.473-66.504-108.32-66.504-23.176 0-44.84 6.5508-63.48 18.137-18.641 11.586-34.258 28.215-44.336 48.871-4.0312-0.50391-8.5664-1.0078-12.594-1.0078-38.793 0-70.535 31.738-70.535 70.535 0 5.543 0.50391 11.082 2.0156 16.121-23.176 16.625-37.281 43.328-37.281 72.043 0 49.375 41.312 89.68 90.688 88.168h61.969l-4.5352-5.0391c-5.0391-5.543-8.0625-12.594-9.0703-19.648h-50.887c-34.762 0-62.977-28.215-62.977-62.977 0-20.152 10.078-39.297 26.703-51.387l13.602-10.078-4.0312-16.625c-1.0078-3.5273-1.0078-7.0547-1.0078-10.578 0-25.191 20.152-45.344 45.344-45.344 2.5195 0 5.543 0 8.0625 1.0078l18.641 3.5273 8.5664-17.129c16.121-32.746 49.375-52.898 85.648-52.898s69.023 20.152 85.648 52.898l8.5664 17.129 18.641-3.5273c2.5195-0.50391 5.543-1.0078 8.0625-1.0078 25.191 0 45.344 20.152 45.344 45.344 0 3.5273-0.50391 7.0547-1.0078 10.578l-4.0312 16.625 13.602 10.078c16.625 12.09 26.703 31.234 26.703 51.387 0 34.762-28.215 62.977-62.977 62.977h-45.848c-1.0078 7.0547-4.0312 14.105-9.0703 19.648l-4.5352 5.543h56.934 2.5195c48.871 0 88.168-39.297 88.168-88.168-0.50781-15.617-4.0352-29.223-10.586-41.816z"></path>
  <path d="m464.99 509.32-1.5117 1.5117-22.168 25.191-29.223 33.754c-5.0391 5.543-14.105 5.543-19.145 0l-29.219-33.754-22.168-25.191-1.5117-1.5117c-4.5352-5.0391-4.0312-13.098 1.0078-17.633 5.0391-4.5352 13.098-4.0312 17.633 1.0078l16.121 18.641 14.609 16.625 0.003907-105.29c0-7.0547 5.543-12.594 12.594-12.594 7.0547 0 12.594 5.543 12.594 12.594v104.79l14.609-16.625 16.121-18.641c4.5352-5.0391 12.594-5.543 17.633-1.0078 6.0508 4.5312 6.5547 12.594 2.0195 18.133z"></path>
 </g>

      </g>
      </svg>